<svg version="1.1" id="Layer_1" xmlns="http://www.w3.org/2000/svg" xmlns:xlink="http://www.w3.org/1999/xlink" x="0px" y="0px"
	 width="100%" viewBox="0 0 218 218" enable-background="new 0 0 218 218" xml:space="preserve">
<path fill="#000000" opacity="1.000000" stroke="none" 
	d="
M149.000000,219.000000 
	C99.333336,219.000000 50.166672,219.000000 1.000007,219.000000 
	C1.000004,146.333344 1.000004,73.666679 1.000002,1.000016 
	C73.666656,1.000011 146.333313,1.000011 218.999969,1.000005 
	C218.999985,73.666649 218.999985,146.333298 219.000000,218.999969 
	C195.833328,219.000000 172.666672,219.000000 149.000000,219.000000 
M131.286713,73.139969 
	C131.335556,59.681870 131.410858,46.223698 131.372223,32.765846 
	C131.369720,31.892677 130.490936,31.022026 129.194672,30.049818 
	C112.932785,31.530567 101.023232,42.605984 98.749779,58.691479 
	C98.125725,63.106861 98.255577,67.628799 97.419357,71.821098 
	C87.609055,62.234081 77.798759,52.647060 67.990479,43.062008 
	C56.477448,52.172634 55.644283,76.477112 66.607346,87.916077 
	C69.219925,90.642052 71.623238,93.568588 73.174652,96.229805 
	C59.758766,96.229805 46.342876,96.229805 32.433918,96.229805 
	C32.684937,98.785873 32.842743,100.392799 32.948895,102.793221 
	C35.704369,115.776337 43.561462,124.406174 56.182518,127.865494 
	C61.765606,129.395767 67.942787,128.758545 73.860207,129.775696 
	C64.290878,139.662964 54.721546,149.550247 45.162273,159.427124 
	C56.649078,172.343338 77.967163,172.506866 91.462860,159.962708 
	C93.742203,157.844086 96.198372,155.915665 98.282837,154.821243 
	C98.245255,164.460052 98.031387,174.102997 98.257668,183.735611 
	C98.347023,187.539490 99.416817,191.320358 100.901749,195.141068 
	C104.569359,194.305328 108.471031,194.009277 111.863106,192.538193 
	C124.899384,186.884613 130.559326,176.015762 132.977219,162.362823 
	C152.730789,160.431717 164.732239,147.117310 164.742477,127.106377 
	C164.750244,111.942810 164.713791,96.779175 164.753189,81.615707 
	C164.781754,70.619507 170.395264,65.000587 181.272705,64.966095 
	C185.938354,64.951302 190.604874,65.007141 195.269135,64.924500 
	C196.168961,64.908554 197.060013,64.397644 197.955109,64.115067 
	C197.888824,63.741875 197.822540,63.368683 197.756256,62.995491 
	C196.118835,62.995491 194.481415,62.995476 192.843994,62.995495 
	C178.680222,62.995644 164.513229,63.178860 150.353897,62.928135 
	C141.689392,62.774704 135.771805,66.411034 131.752808,73.866508 
	C131.581329,73.861481 131.409866,73.856445 131.286713,73.139969 
z"/>
<path fill="#FCFCFC" opacity="1.000000" stroke="none" 
	d="
M132.182953,74.148949 
	C135.771805,66.411034 141.689392,62.774704 150.353897,62.928135 
	C164.513229,63.178860 178.680222,62.995644 192.843994,62.995495 
	C194.481415,62.995476 196.118835,62.995491 197.756256,62.995491 
	C197.822540,63.368683 197.888824,63.741875 197.955109,64.115067 
	C197.060013,64.397644 196.168961,64.908554 195.269135,64.924500 
	C190.604874,65.007141 185.938354,64.951302 181.272705,64.966095 
	C170.395264,65.000587 164.781754,70.619507 164.753189,81.615707 
	C164.713791,96.779175 164.750244,111.942810 164.742477,127.106377 
	C164.732239,147.117310 152.730789,160.431717 132.264191,162.079803 
	C131.383667,148.866852 131.216187,135.936905 131.140137,122.608307 
	C131.326797,121.127190 131.422043,120.044716 131.701645,118.658707 
	C131.788300,114.462502 131.690613,110.569824 131.592072,106.294022 
	C131.676376,95.912514 131.761505,85.914146 131.960114,75.630196 
	C132.110046,74.946060 132.146500,74.547508 132.182953,74.148949 
z"/>
<path fill="#434343" opacity="1.000000" stroke="none" 
	d="
M131.048721,123.006966 
	C131.216187,135.936905 131.383667,148.866852 131.836182,162.147064 
	C130.559326,176.015762 124.899384,186.884613 111.863106,192.538193 
	C108.471031,194.009277 104.569359,194.305328 100.459229,194.646790 
	C100.011345,182.435120 100.051262,170.717346 99.950096,159.000809 
	C99.935501,157.310516 99.242630,155.626114 98.894745,153.624390 
	C98.957855,152.889633 98.989876,152.469437 99.313362,151.887115 
	C104.183434,147.195297 108.842484,142.743256 113.312782,138.109116 
	C116.368050,134.941864 119.160065,131.520660 122.347565,128.030838 
	C124.625809,126.200005 126.626266,124.551323 129.030029,122.931000 
	C129.971802,122.975220 130.510269,122.991089 131.048721,123.006966 
z"/>
<path fill="#9C9C9C" opacity="1.000000" stroke="none" 
	d="
M98.039474,72.101845 
	C98.255577,67.628799 98.125725,63.106861 98.749779,58.691479 
	C101.023232,42.605984 112.932785,31.530567 129.600159,30.558689 
	C130.004425,43.958839 129.971970,56.850277 130.038773,69.741203 
	C130.047806,71.483429 130.555328,73.223076 130.931427,75.195015 
	C131.068069,75.589622 131.105362,75.753136 130.820038,76.204674 
	C130.331207,80.599152 130.221176,84.708847 129.984039,88.811195 
	C129.710022,93.551201 129.324020,98.284729 128.699509,102.861938 
	C126.303383,100.781967 124.194374,98.861122 121.924057,96.648773 
	C114.532082,89.205399 107.301422,82.053543 99.915329,74.670914 
	C99.237602,74.346634 98.715294,74.253128 98.137299,73.819595 
	C98.067558,73.020325 98.053520,72.561089 98.039474,72.101845 
z"/>
<path fill="#525252" opacity="1.000000" stroke="none" 
	d="
M99.021896,152.049255 
	C98.989876,152.469437 98.957855,152.889633 98.821045,153.628357 
	C98.716255,153.946899 98.572838,153.899353 98.572845,153.899353 
	C96.198372,155.915665 93.742203,157.844086 91.462860,159.962708 
	C77.967163,172.506866 56.649078,172.343338 45.162273,159.427124 
	C54.721546,149.550247 64.290878,139.662964 74.195023,129.403870 
	C74.984550,129.042221 75.439278,129.052399 76.374359,129.069061 
	C83.874786,129.114304 90.894859,129.153061 97.945816,129.647476 
	C97.989189,132.575836 97.901352,135.054016 98.035454,137.520111 
	C98.299019,142.366714 98.685989,147.206589 99.021896,152.049255 
z"/>
<path fill="#848484" opacity="1.000000" stroke="none" 
	d="
M97.729416,71.961472 
	C98.053520,72.561089 98.067558,73.020325 98.068802,73.806442 
	C98.056000,74.133324 98.029236,73.996422 97.728973,74.288757 
	C97.296486,81.704224 97.164253,88.827339 96.561829,95.970596 
	C89.148201,96.270729 82.204781,96.550743 74.975296,96.817909 
	C74.498795,96.791824 74.308350,96.778587 74.111031,96.674629 
	C74.104149,96.583900 74.122803,96.402878 74.122803,96.402878 
	C71.623238,93.568588 69.219925,90.642052 66.607346,87.916077 
	C55.644283,76.477112 56.477448,52.172634 67.990479,43.062008 
	C77.798759,52.647060 87.609055,62.234081 97.729416,71.961472 
z"/>
<path fill="#6D6D6D" opacity="1.000000" stroke="none" 
	d="
M74.117912,96.765358 
	C74.308350,96.778587 74.498795,96.791824 75.216049,97.032028 
	C80.848892,102.488556 85.954926,107.718132 90.903946,113.246262 
	C85.795944,118.717415 80.844971,123.889999 75.893997,129.062592 
	C75.439278,129.052399 74.984550,129.042221 74.190048,129.068665 
	C67.942787,128.758545 61.765606,129.395767 56.182518,127.865494 
	C43.561462,124.406174 35.704369,115.776337 33.260513,102.138977 
	C33.929512,98.680984 35.463360,97.878479 38.287357,97.928490 
	C48.551060,98.110245 58.820530,98.055428 69.086258,97.944641 
	C70.767517,97.926506 72.440895,97.176895 74.117912,96.765358 
z"/>
<path fill="#797979" opacity="1.000000" stroke="none" 
	d="
M74.111031,96.674629 
	C72.440895,97.176895 70.767517,97.926506 69.086258,97.944641 
	C58.820530,98.055428 48.551060,98.110245 38.287357,97.928490 
	C35.463360,97.878479 33.929512,98.680984 33.286343,101.742233 
	C32.842743,100.392799 32.684937,98.785873 32.433918,96.229805 
	C46.342876,96.229805 59.758766,96.229805 73.648727,96.316345 
	C74.122803,96.402878 74.104149,96.583900 74.111031,96.674629 
z"/>
<path fill="#4D4D4D" opacity="1.000000" stroke="none" 
	d="
M98.427841,154.360291 
	C98.572838,153.899353 98.716255,153.946899 98.789948,153.942932 
	C99.242630,155.626114 99.935501,157.310516 99.950096,159.000809 
	C100.051262,170.717346 100.011345,182.435120 100.028450,194.632095 
	C99.416817,191.320358 98.347023,187.539490 98.257668,183.735611 
	C98.031387,174.102997 98.245255,164.460052 98.427841,154.360291 
z"/>
<path fill="#AEAEAE" opacity="1.000000" stroke="none" 
	d="
M130.832047,74.963913 
	C130.555328,73.223076 130.047806,71.483429 130.038773,69.741203 
	C129.971970,56.850277 130.004425,43.958839 130.012726,30.608883 
	C130.490936,31.022026 131.369720,31.892677 131.372223,32.765846 
	C131.410858,46.223698 131.335556,59.681870 131.126343,73.761185 
	C130.921341,74.576241 130.876694,74.770073 130.832047,74.963913 
z"/>
<path fill="#545454" opacity="1.000000" stroke="none" 
	d="
M130.931427,75.195015 
	C130.876694,74.770073 130.921341,74.576241 131.102203,74.116913 
	C131.409866,73.856445 131.581329,73.861481 131.967880,74.007729 
	C132.146500,74.547508 132.110046,74.946060 131.784119,75.630142 
	C131.494659,75.915657 131.142654,75.916649 131.142654,75.916649 
	C131.105362,75.753136 131.068069,75.589622 130.931427,75.195015 
z"/>
<path fill="#D0D0D0" opacity="1.000000" stroke="none" 
	d="
M98.124496,74.146469 
	C98.715294,74.253128 99.237602,74.346634 99.890182,75.149155 
	C100.013527,81.344032 100.109512,86.832748 99.957298,92.314575 
	C99.878319,95.158890 101.014435,96.008514 103.764053,96.061699 
	C109.874535,96.179871 115.978661,96.627151 122.085373,96.940277 
	C124.194374,98.861122 126.303383,100.781967 128.814880,103.164139 
	C130.009216,104.642693 130.801056,105.659927 131.592911,106.677155 
	C131.690613,110.569824 131.788300,114.462502 131.335953,118.729301 
	C130.066177,120.369835 129.346451,121.636238 128.626724,122.902641 
	C126.626266,124.551323 124.625809,126.200005 121.931473,128.049164 
	C116.483406,128.201111 111.729210,128.152557 106.844116,127.792648 
	C104.170418,124.959396 101.627617,122.437492 99.065155,119.539810 
	C98.699699,117.445229 98.353912,115.726433 98.017670,113.539368 
	C98.032455,107.399155 98.037697,101.727219 98.173019,95.734482 
	C98.211815,88.274605 98.120522,81.135513 98.029236,73.996422 
	C98.029236,73.996422 98.056000,74.133324 98.124496,74.146469 
z"/>
<path fill="#939393" opacity="1.000000" stroke="none" 
	d="
M131.592072,106.294022 
	C130.801056,105.659927 130.009216,104.642693 129.101990,103.323273 
	C129.324020,98.284729 129.710022,93.551201 129.984039,88.811195 
	C130.221176,84.708847 130.331207,80.599152 130.820038,76.204674 
	C131.142654,75.916649 131.494659,75.915657 131.670654,75.915710 
	C131.761505,85.914146 131.676376,95.912514 131.592072,106.294022 
z"/>
<path fill="#313131" opacity="1.000000" stroke="none" 
	d="
M129.030029,122.931000 
	C129.346451,121.636238 130.066177,120.369835 131.151596,119.032837 
	C131.422043,120.044716 131.326797,121.127190 131.140137,122.608307 
	C130.510269,122.991089 129.971802,122.975220 129.030029,122.931000 
z"/>
<path fill="#666666" opacity="1.000000" stroke="none" 
	d="
M106.975021,128.104004 
	C111.729210,128.152557 116.483406,128.201111 121.653687,128.231323 
	C119.160065,131.520660 116.368050,134.941864 113.312782,138.109116 
	C108.842484,142.743256 104.183434,147.195297 99.313370,151.887115 
	C98.685989,147.206589 98.299019,142.366714 98.035454,137.520111 
	C97.901352,135.054016 97.989189,132.575836 98.390442,129.594513 
	C101.527786,128.758606 104.251404,128.431305 106.975021,128.104004 
z"/>
<path fill="#C4C4C4" opacity="1.000000" stroke="none" 
	d="
M121.924057,96.648773 
	C115.978661,96.627151 109.874535,96.179871 103.764053,96.061699 
	C101.014435,96.008514 99.878319,95.158890 99.957298,92.314575 
	C100.109512,86.832748 100.013527,81.344032 100.045609,75.379929 
	C107.301422,82.053543 114.532082,89.205399 121.924057,96.648773 
z"/>
<path fill="#898989" opacity="1.000000" stroke="none" 
	d="
M106.844116,127.792648 
	C104.251404,128.431305 101.527786,128.758606 98.359550,129.138870 
	C90.894859,129.153061 83.874786,129.114304 76.374352,129.069061 
	C80.844971,123.889999 85.795944,118.717415 91.132263,113.270126 
	C91.517609,112.995422 91.976479,113.029510 92.134262,113.324120 
	C94.556297,115.717682 96.820557,117.816643 99.084824,119.915588 
	C101.627617,122.437492 104.170418,124.959396 106.844116,127.792648 
z"/>
<path fill="#A4A4A4" opacity="1.000000" stroke="none" 
	d="
M91.976479,113.029510 
	C91.976479,113.029510 91.517609,112.995422 91.289291,112.971558 
	C85.954926,107.718132 80.848892,102.488556 75.502106,97.044861 
	C82.204781,96.550743 89.148201,96.270729 96.813934,96.001625 
	C97.705139,96.026772 97.874039,96.041023 98.042938,96.055275 
	C98.037697,101.727219 98.032455,107.399155 97.749161,113.305328 
	C97.070175,112.099045 96.669243,110.658539 96.051033,108.437386 
	C94.307228,110.402702 93.141853,111.716103 91.976479,113.029510 
z"/>
<path fill="#707070" opacity="1.000000" stroke="none" 
	d="
M98.173019,95.734482 
	C97.874039,96.041023 97.705139,96.026772 97.284134,95.981491 
	C97.164253,88.827339 97.296486,81.704224 97.728973,74.288757 
	C98.120522,81.135513 98.211815,88.274605 98.173019,95.734482 
z"/>
<path fill="#AEAEAE" opacity="1.000000" stroke="none" 
	d="
M92.134262,113.324120 
	C93.141853,111.716103 94.307228,110.402702 96.051033,108.437386 
	C96.669243,110.658539 97.070175,112.099045 97.739616,113.773590 
	C98.353912,115.726433 98.699699,117.445229 99.065147,119.539810 
	C96.820557,117.816643 94.556297,115.717682 92.134262,113.324120 
z"/>
</svg>